<svg width="26" height="25" viewBox="0 0 26 25" fill="none" xmlns="http://www.w3.org/2000/svg">
<path d="M12.6556 6.0921C9.10849 6.0921 6.24737 8.95323 6.24737 12.5004C6.24737 16.0475 9.10849 18.9086 12.6556 18.9086C16.2027 18.9086 19.0639 16.0475 19.0639 12.5004C19.0639 8.95323 16.2027 6.0921 12.6556 6.0921ZM12.6556 16.6666C10.3634 16.6666 8.48942 14.7982 8.48942 12.5004C8.48942 10.2025 10.3578 8.33415 12.6556 8.33415C14.9534 8.33415 16.8218 10.2025 16.8218 12.5004C16.8218 14.7982 14.9479 16.6666 12.6556 16.6666V16.6666ZM20.8207 5.82997C20.8207 6.66098 20.1514 7.32467 19.326 7.32467C18.495 7.32467 17.8313 6.6554 17.8313 5.82997C17.8313 5.00454 18.5006 4.33527 19.326 4.33527C20.1514 4.33527 20.8207 5.00454 20.8207 5.82997ZM25.065 7.34698C24.9702 5.34475 24.5128 3.57119 23.046 2.10995C21.5848 0.648709 19.8112 0.191375 17.809 0.0909849C15.7454 -0.0261372 9.56025 -0.0261372 7.49667 0.0909849C5.50002 0.185798 3.72645 0.643132 2.25964 2.10437C0.792821 3.56561 0.341064 5.33917 0.240674 7.3414C0.123551 9.40498 0.123551 15.5901 0.240674 17.6537C0.335487 19.656 0.792821 21.4295 2.25964 22.8908C3.72645 24.352 5.49444 24.8093 7.49667 24.9097C9.56025 25.0268 15.7454 25.0268 17.809 24.9097C19.8112 24.8149 21.5848 24.3576 23.046 22.8908C24.5073 21.4295 24.9646 19.656 25.065 17.6537C25.1821 15.5901 25.1821 9.41056 25.065 7.34698V7.34698ZM22.3991 19.8679C21.964 20.961 21.1219 21.8032 20.0232 22.2438C18.3779 22.8963 14.4738 22.7458 12.6556 22.7458C10.8374 22.7458 6.92779 22.8908 5.28808 22.2438C4.19494 21.8088 3.35278 20.9666 2.91217 19.8679C2.25964 18.2226 2.41022 14.3185 2.41022 12.5004C2.41022 10.6822 2.26521 6.77252 2.91217 5.13281C3.3472 4.03967 4.18936 3.19751 5.28808 2.75691C6.93337 2.10437 10.8374 2.25496 12.6556 2.25496C14.4738 2.25496 18.3835 2.10995 20.0232 2.75691C21.1163 3.19193 21.9585 4.0341 22.3991 5.13281C23.0516 6.7781 22.901 10.6822 22.901 12.5004C22.901 14.3185 23.0516 18.2282 22.3991 19.8679Z" fill="#22201E"/>
</svg>
