<svg width="29" height="25" viewBox="0 0 29 25" fill="none" xmlns="http://www.w3.org/2000/svg">
<path d="M28.7046 5.85596C28.5771 8.63589 26.6388 12.4424 22.8769 17.2754C18.9939 22.3252 15.7103 24.8501 13.0196 24.8501C11.3555 24.8501 9.94638 23.3135 8.79232 20.2402C6.54797 12.0024 5.59157 7.17579 3.73615 7.17579C3.51936 7.17579 2.77337 7.62849 1.49179 8.52113L0.152832 6.78685C3.44285 3.89852 6.58622 0.685013 8.55641 0.506485C10.7816 0.289701 12.1461 1.81357 12.6626 5.06533C14.4925 16.6378 15.3022 18.3848 18.6305 13.1437C19.8228 11.2564 20.4668 9.82183 20.5561 8.83355C20.8621 5.90696 18.2734 6.10462 16.52 6.85699C17.9228 2.25989 20.6071 0.0282842 24.5666 0.155804C27.4868 0.232316 28.8704 2.13874 28.7046 5.85596Z" fill="#22201E"/>
</svg>
