<svg width="29" height="21" viewBox="0 0 29 21" fill="none" xmlns="http://www.w3.org/2000/svg">
<path d="M28.7183 4.54874C28.7183 4.54874 28.4421 2.49605 27.5914 1.59473C26.5143 0.408479 25.3101 0.402664 24.7577 0.332884C20.8026 0.030506 14.8644 0.0305061 14.8644 0.0305061H14.8534C14.8534 0.0305061 8.9152 0.030506 4.96011 0.332884C4.40772 0.402664 3.20352 0.408479 2.12636 1.59473C1.27568 2.49605 1.00501 4.54874 1.00501 4.54874C1.00501 4.54874 0.717773 6.96195 0.717773 9.36934V11.6255C0.717773 14.0329 0.999491 16.4462 0.999491 16.4462C0.999491 16.4462 1.27568 18.4988 2.12084 19.4002C3.19799 20.5864 4.6121 20.5457 5.24183 20.6736C7.50661 20.9004 14.8589 20.9702 14.8589 20.9702C14.8589 20.9702 20.8026 20.9586 24.7577 20.662C25.3101 20.5922 26.5143 20.5864 27.5914 19.4002C28.4421 18.4988 28.7183 16.4462 28.7183 16.4462C28.7183 16.4462 29 14.0388 29 11.6255V9.36934C29 6.96195 28.7183 4.54874 28.7183 4.54874ZM11.9368 14.3644V5.99666L19.5763 10.1951L11.9368 14.3644Z" fill="#22201E"/>
</svg>
